<?xml version="1.0" encoding="UTF-8" standalone="no"?>
<svg
   xmlns:dc="http://purl.org/dc/elements/1.1/"
   xmlns:cc="http://creativecommons.org/ns#"
   xmlns:rdf="http://www.w3.org/1999/02/22-rdf-syntax-ns#"
   xmlns:svg="http://www.w3.org/2000/svg"
   xmlns="http://www.w3.org/2000/svg"
   xmlns:sodipodi="http://sodipodi.sourceforge.net/DTD/sodipodi-0.dtd"
   xmlns:inkscape="http://www.inkscape.org/namespaces/inkscape"
   viewBox="-10 -40 270 180"
   version="1.1"
   id="svg966"
   sodipodi:docname="fenders-inkscape.svg"
   inkscape:version="0.92.2 (5c3e80d, 2017-08-06)">
  <metadata
     id="metadata972">
    <rdf:RDF>
      <cc:Work
         rdf:about="">
        <dc:format>image/svg+xml</dc:format>
        <dc:type
           rdf:resource="http://purl.org/dc/dcmitype/StillImage" />
        <dc:title></dc:title>
      </cc:Work>
    </rdf:RDF>
  </metadata>
  <defs
     id="defs970" />
  <sodipodi:namedview
     pagecolor="#ffffff"
     bordercolor="#666666"
     borderopacity="1"
     objecttolerance="10"
     gridtolerance="10"
     guidetolerance="10"
     inkscape:pageopacity="0"
     inkscape:pageshadow="2"
     inkscape:window-width="3000"
     inkscape:window-height="1875"
     id="namedview968"
     showgrid="false"
     inkscape:zoom="3.7083822"
     inkscape:cx="116.19373"
     inkscape:cy="98.946581"
     inkscape:window-x="-13"
     inkscape:window-y="-13"
     inkscape:window-maximized="1"
     inkscape:current-layer="svg966" />
  <!-- cyan bottom left -->
  <linearGradient
     id="a"
     y2="1">
    <stop
       offset=".4"
       stop-color="#4bb483"
       id="stop922" />
    <stop
       offset="1"
       stop-color="#44c1f0"
       id="stop924" />
  </linearGradient>
  <!-- red top right -->
  <linearGradient
     id="b"
     y2="1">
    <stop
       offset="0"
       stop-color="#ef7a56"
       id="stop927" />
    <stop
       offset=".8"
       stop-color="#eb5b7d"
       id="stop929" />
  </linearGradient>
  <!-- orange top left -->
  <linearGradient
     id="c"
     y2="1.18">
    <stop
       offset="0.3"
       stop-color="#fabf02"
       id="stop932" />
    <stop
       offset="0.6"
       stop-color="#ef7a56"
       id="stop934" />
  </linearGradient>
  <!-- purple bottom right -->
  <linearGradient
     id="d"
     y2="1.18">
    <stop
       offset="0.4"
       stop-color="#7a4795"
       id="stop937" />
    <stop
       offset="0.6"
       stop-color="#6c2f88"
       id="stop939" />
  </linearGradient>
  <path
     d="m38.08 48.64a8.82 8.82 0 0 1 -12.47 12.47l-23-23.17 12.6-12.16z"
     fill="url(#a)"
     fill-rule="evenodd"
     id="path942" />
  <path
     d="m219.85 25.42a8.81 8.81 0 1 1 12.46-12.42l22.61 22.72-12.21 12.57z"
     fill="url(#b)"
     fill-rule="evenodd"
     id="path944" />
  <g
     id="g960"
     style="fill:#222222">
    <path
       d="m 62.27,25.63 c -9.78,0 -16.6,8 -16.6,17.64 v 0.13 c 0,10.37 7.45,17.52 17.54,17.52 A 17.29,17.29 0 0 0 74.86,56.81 3.78,3.78 0 0 0 76.11,54 3.65,3.65 0 0 0 72.42,50.21 3.52,3.52 0 0 0 70.1,50.97 11,11 0 0 1 63.33,53.24 7.79,7.79 0 0 1 55.13,46.6 H 74 a 4.36,4.36 0 0 0 4.45,-4.62 C 78.43,34.92 73.48,25.63 62.27,25.63 Z M 55,40.55 c 0.75,-4.36 3.32,-7.21 7.27,-7.21 3.95,0 6.51,2.91 7.08,7.21 z"
       id="path946"
       inkscape:connector-curvature="0" />
    <path
       d="m 101.93,25.63 c -4.83,0 -7.65,2.59 -9.84,5.44 v -0.38 a 4.76,4.76 0 1 0 -9.52,0 v 25 a 4.76,4.76 0 1 0 9.52,0 V 41.25 c 0,-4.55 2.32,-6.9 6,-6.9 3.68,0 5.77,2.35 5.77,6.9 v 14.48 a 4.76,4.76 0 1 0 9.52,0 V 38.21 c -0.05,-7.78 -4.25,-12.58 -11.45,-12.58 z"
       id="path948"
       inkscape:connector-curvature="0" />
    <path
       d="m 173.85,25.63 c -9.77,0 -16.6,8 -16.6,17.64 v 0.13 c 0,10.37 7.46,17.52 17.54,17.52 a 17.32,17.32 0 0 0 11.66,-4.11 3.78,3.78 0 0 0 1.25,-2.81 3.66,3.66 0 0 0 -3.7,-3.79 3.48,3.48 0 0 0 -2.31,0.76 11,11 0 0 1 -6.77,2.27 7.8,7.8 0 0 1 -8.21,-6.64 h 18.86 A 4.36,4.36 0 0 0 190,41.94 c 0,-7.02 -4.93,-16.31 -16.15,-16.31 z m -7.26,14.92 c 0.75,-4.36 3.32,-7.21 7.26,-7.21 3.94,0 6.52,2.91 7.08,7.21 z"
       id="path950"
       inkscape:connector-curvature="0" />
    <path
       d="m 40.34,21.64 h 0.81 a 4,4 0 0 0 3.89,-4 3.9,3.9 0 0 0 -3.26,-3.86 23,23 0 0 0 -3.88,-0.25 q -5.09,0 -7.71,2.65 C 28.44,18 27.5,20.69 27.5,24.43 v 2.15 h -0.38 a 4,4 0 0 0 -3.95,4 3.9,3.9 0 0 0 3.95,3.92 h 0.38 v 21.23 a 4.76,4.76 0 1 0 9.52,0 V 34.48 h 4 a 3.92,3.92 0 1 0 0,-7.84 h -4.13 v -1.33 c 0,-2.53 1.26,-3.67 3.45,-3.67 z"
       id="path952"
       inkscape:connector-curvature="0" />
    <path
       d="m 231.68,39.67 c -3.63,-1.27 -6.83,-2.15 -6.83,-4.05 v -0.13 c 0,-1.32 1.19,-2.34 3.51,-2.34 a 17.88,17.88 0 0 1 7.27,2.15 3.44,3.44 0 0 0 1.75,0.45 3.77,3.77 0 0 0 3.83,-3.8 3.91,3.91 0 0 0 -2.26,-3.6 23.37,23.37 0 0 0 -10.4,-2.6 c -6.77,0 -12.28,3.86 -12.28,10.76 v 0.12 c 0,6.58 5.33,8.79 10,10.18 3.7,1.14 7,1.84 7,3.93 v 0.12 c 0,1.52 -1.25,2.53 -4,2.53 a 17.64,17.64 0 0 1 -9.09,-3 3.58,3.58 0 0 0 -1.87,-0.51 3.72,3.72 0 0 0 -3.76,3.8 3.83,3.83 0 0 0 1.81,3.28 23.24,23.24 0 0 0 12.64,3.83 c 7.27,0 12.84,-3.41 12.84,-10.94 v -0.13 c -0.01,-6.19 -5.46,-8.47 -10.16,-10.05 z"
       id="path954"
       inkscape:connector-curvature="0" />
    <path
       d="m 209.5,25.88 c -2.82,0 -5.07,3 -6.45,6.32 v -1.51 a 4.76,4.76 0 1 0 -9.52,0 v 25 a 4.76,4.76 0 1 0 9.52,0 v -9 c 0,-6.83 2.69,-10.56 7.52,-11.7 a 4.41,4.41 0 0 0 3.57,-4.49 4.36,4.36 0 0 0 -4.64,-4.62 z"
       id="path956"
       inkscape:connector-curvature="0" />
    <path
       d="m 148.1,13.61 a 4.78,4.78 0 0 0 -4.76,4.81 v 12.27 a 12.85,12.85 0 0 0 -10.46,-5.06 c -8,0 -15.29,6.19 -15.29,17.52 v 0.12 c 0,11.32 7.46,17.52 15.29,17.52 a 12.3,12.3 0 0 0 10.46,-5.5 v 0.44 a 4.77,4.77 0 1 0 9.53,0 V 18.42 a 4.79,4.79 0 0 0 -4.77,-4.81 z m -4.63,29.66 c 0,5.63 -3.7,9.36 -8.15,9.36 -4.45,0 -8.21,-3.73 -8.21,-9.36 v -0.12 c 0,-5.7 3.76,-9.36 8.21,-9.36 4.45,0 8.15,3.73 8.15,9.36 z"
       id="path958"
       inkscape:connector-curvature="0" />
  </g>
  <path
     d="m37.47 2.6a8.94 8.94 0 0 1 0 12.55l-22.47 22.79c-1.51 1.52-4.62 5.9-2 10.5 0 0-8.52-8.55-10.44-10.5a8.94 8.94 0 0 1 0-12.55l22.51-22.79a8.69 8.69 0 0 1 12.4 0z"
     fill="url(#c)"
     fill-rule="evenodd"
     id="path962" />
  <path
     d="m220.45 71.46a9 9 0 0 1 0-12.55l22.55-22.79c1.5-1.52 4.63-5.88 2-10.48l10.42 10.48a9 9 0 0 1 0 12.56l-22.5 22.78a8.69 8.69 0 0 1 -12.47 0z"
     fill="url(#d)"
     fill-rule="evenodd"
     id="path964" />
</svg>
