<svg viewBox="0 0 257.92 74.06" xmlns="http://www.w3.org/2000/svg" xmlns:xlink="http://www.w3.org/1999/xlink">
  <linearGradient id="a" gradientUnits="userSpaceOnUse" x1="14.31" x2="43.41" y1="37.83" y2="64.63">
    <stop offset="0" stop-color="#4bb483"/>
    <stop offset="1" stop-color="#44c1f0"/>
  </linearGradient>
  <linearGradient id="b" gradientTransform="matrix(-1 0 0 -1 455.07 30.14)" gradientUnits="userSpaceOnUse" x1="212.9" x2="231.49" y1="-5.92" y2="15.38">
    <stop offset="0" stop-color="#eb5b7d"/>
    <stop offset="1" stop-color="#ef7a56"/>
  </linearGradient>
  <linearGradient id="c" gradientUnits="userSpaceOnUse" x1="28.94" x2="13.19" y1="29.62" y2="13.11">
    <stop offset="0" stop-color="#ef7a56"/>
    <stop offset="1" stop-color="#fabf02"/>
  </linearGradient>
  <linearGradient id="d" gradientTransform="matrix(-1 0 0 -1 455.07 30.14)" gradientUnits="userSpaceOnUse" x1="226.07" x2="210.34" y1="-14.33" y2="-30.81">
    <stop offset="0" stop-color="#7a4795"/>
    <stop offset="1" stop-color="#6c2f88"/>
  </linearGradient>

  <path d="m38.08 48.64a8.82 8.82 0 0 1 -12.47 12.47l-23-23.17 12.6-12.16z" fill="url(#a)" fill-rule="evenodd"/>
  <path d="m219.85 25.42a8.81 8.81 0 1 1 12.46-12.42l22.61 22.72-12.21 12.57z" fill="url(#b)" fill-rule="evenodd"/>

  <g fill="#eee">
    <path d="m62.27 25.63c-9.78 0-16.6 8-16.6 17.64v.13c0 10.37 7.45 17.52 17.54 17.52a17.29 17.29 0 0 0 11.65-4.11 3.78 3.78 0 0 0 1.25-2.81 3.65 3.65 0 0 0 -3.69-3.79 3.52 3.52 0 0 0 -2.32.76 11 11 0 0 1 -6.77 2.27 7.79 7.79 0 0 1 -8.2-6.64h18.87a4.36 4.36 0 0 0 4.45-4.62c-.02-7.06-4.97-16.35-16.18-16.35zm-7.27 14.92c.75-4.36 3.32-7.21 7.27-7.21s6.51 2.91 7.08 7.21z"/>
    <path d="m101.93 25.63c-4.83 0-7.65 2.59-9.84 5.44v-.38a4.76 4.76 0 1 0 -9.52 0v25a4.76 4.76 0 1 0 9.52 0v-14.44c0-4.55 2.32-6.9 6-6.9s5.77 2.35 5.77 6.9v14.48a4.76 4.76 0 1 0 9.52 0v-17.52c-.05-7.78-4.25-12.58-11.45-12.58z"/>
    <path d="m173.85 25.63c-9.77 0-16.6 8-16.6 17.64v.13c0 10.37 7.46 17.52 17.54 17.52a17.32 17.32 0 0 0 11.66-4.11 3.78 3.78 0 0 0 1.25-2.81 3.66 3.66 0 0 0 -3.7-3.79 3.48 3.48 0 0 0 -2.31.76 11 11 0 0 1 -6.77 2.27 7.8 7.8 0 0 1 -8.21-6.64h18.86a4.36 4.36 0 0 0 4.43-4.66c0-7.02-4.93-16.31-16.15-16.31zm-7.26 14.92c.75-4.36 3.32-7.21 7.26-7.21s6.52 2.91 7.08 7.21z"/>
    <path d="m40.34 21.64h.81a4 4 0 0 0 3.89-4 3.9 3.9 0 0 0 -3.26-3.86 23 23 0 0 0 -3.88-.25q-5.09 0-7.71 2.65c-1.75 1.82-2.69 4.51-2.69 8.25v2.15h-.38a4 4 0 0 0 -3.95 4 3.9 3.9 0 0 0 3.95 3.92h.38v21.23a4.76 4.76 0 1 0 9.52 0v-21.25h4a3.92 3.92 0 1 0 0-7.84h-4.13v-1.33c0-2.53 1.26-3.67 3.45-3.67z"/>
    <path d="m231.68 39.67c-3.63-1.27-6.83-2.15-6.83-4.05v-.13c0-1.32 1.19-2.34 3.51-2.34a17.88 17.88 0 0 1 7.27 2.15 3.44 3.44 0 0 0 1.75.45 3.77 3.77 0 0 0 3.83-3.8 3.91 3.91 0 0 0 -2.26-3.6 23.37 23.37 0 0 0 -10.4-2.6c-6.77 0-12.28 3.86-12.28 10.76v.12c0 6.58 5.33 8.79 10 10.18 3.7 1.14 7 1.84 7 3.93v.12c0 1.52-1.25 2.53-4 2.53a17.64 17.64 0 0 1 -9.09-3 3.58 3.58 0 0 0 -1.87-.51 3.72 3.72 0 0 0 -3.76 3.8 3.83 3.83 0 0 0 1.81 3.28 23.24 23.24 0 0 0 12.64 3.83c7.27 0 12.84-3.41 12.84-10.94v-.13c-.01-6.19-5.46-8.47-10.16-10.05z"/>
    <path d="m209.5 25.88c-2.82 0-5.07 3-6.45 6.32v-1.51a4.76 4.76 0 1 0 -9.52 0v25a4.76 4.76 0 1 0 9.52 0v-9c0-6.83 2.69-10.56 7.52-11.7a4.41 4.41 0 0 0 3.57-4.49 4.36 4.36 0 0 0 -4.64-4.62z"/>
    <path d="m148.1 13.61a4.78 4.78 0 0 0 -4.76 4.81v12.27a12.85 12.85 0 0 0 -10.46-5.06c-8 0-15.29 6.19-15.29 17.52v.12c0 11.32 7.46 17.52 15.29 17.52a12.3 12.3 0 0 0 10.46-5.5v.44a4.77 4.77 0 1 0 9.53 0v-37.31a4.79 4.79 0 0 0 -4.77-4.81zm-4.63 29.66c0 5.63-3.7 9.36-8.15 9.36s-8.21-3.73-8.21-9.36v-.12c0-5.7 3.76-9.36 8.21-9.36s8.15 3.73 8.15 9.36z"/>
  </g>

  <path d="m37.47 2.6a8.94 8.94 0 0 1 0 12.55l-22.47 22.79c-1.51 1.52-4.62 5.9-2 10.5 0 0-8.52-8.55-10.44-10.5a8.94 8.94 0 0 1 0-12.55l22.51-22.79a8.69 8.69 0 0 1 12.4 0z" fill="url(#c)" fill-rule="evenodd"/>
  <path d="m220.45 71.46a9 9 0 0 1 0-12.55l22.55-22.79c1.5-1.52 4.63-5.88 2-10.48l10.42 10.48a9 9 0 0 1 0 12.56l-22.5 22.78a8.69 8.69 0 0 1 -12.47 0z" fill="url(#d)" fill-rule="evenodd"/>

</svg>